<?xml version="1.0" encoding="UTF-8"?>
<!DOCTYPE svg PUBLIC "-//W3C//DTD SVG 1.1//EN" "http://www.w3.org/Graphics/SVG/1.1/DTD/svg11.dtd">
<!-- Creator: CorelDRAW -->
<svg xmlns="http://www.w3.org/2000/svg" xml:space="preserve" width="16px" height="16px" style="shape-rendering:geometricPrecision; text-rendering:geometricPrecision; image-rendering:optimizeQuality; fill-rule:evenodd; clip-rule:evenodd"
viewBox="0 0 2.33086 2.33086"
 xmlns:xlink="http://www.w3.org/1999/xlink">
 <defs>
  <style type="text/css">
   <![CDATA[
    .str0 {stroke:#4C4C4C;stroke-width:0.00502137}
    .fil3 {fill:none}
    .fil2 {fill:black}
    .fil0 {fill:white}
    .fil1 {fill:black;fill-rule:nonzero}
   ]]>
  </style>
   <clipPath id="id0">
    <path d="M-0 0l2.33086 0 0 2.33086 -2.33086 0 0 -2.33086z"/>
   </clipPath>
 </defs>
 <g id="Ebene_x0020_1">
  <metadata id="CorelCorpID_0Corel-Layer"/>
  <g>
  </g>
  <g style="clip-path:url(#id0)">
   <g>
    <g id="_171765600">
     <rect id="_171765384" class="fil0" x="0.245196" y="0.551939" width="1.84046" height="1.22698" rx="0.178748" ry="0.178748"/>
     <path id="_171766800" class="fil1" d="M0.39929 0.509737l1.53228 0c0.0540266,0 0.10311,0.022071 0.138665,0.057629 0.035558,0.0355552 0.057629,0.0846416 0.057629,0.138667l0 0.918789c0,0.0540252 -0.022071,0.10311 -0.0576276,0.138665 -0.0355566,0.035558 -0.0846416,0.057629 -0.138667,0.057629l-1.53228 0c-0.0540252,0 -0.10311,-0.022071 -0.138667,-0.057629 -0.0355566,-0.0355552 -0.0576276,-0.0846402 -0.0576276,-0.138665l0 -0.918789c0,-0.0540252 0.022071,-0.103112 0.057629,-0.138667 0.0355552,-0.035558 0.0846388,-0.057629 0.138665,-0.057629zm1.53228 0.0844025l-1.53228 0c-0.030726,0 -0.0586908,0.0126018 -0.0789897,0.0329022 -0.0203004,0.020299 -0.0329022,0.0482652 -0.0329022,0.0789911l0 0.918789c0,0.030726 0.0126018,0.0586908 0.0329008,0.0789897 0.0203004,0.0203004 0.0482652,0.0329022 0.0789911,0.0329022l1.53228 0c0.030726,0 0.0586908,-0.0126018 0.0789911,-0.0329022 0.020299,-0.020299 0.0329008,-0.0482637 0.0329008,-0.0789897l0 -0.918789c0,-0.030726 -0.0126018,-0.0586922 -0.0329022,-0.0789911 -0.020299,-0.0203004 -0.0482637,-0.0329022 -0.0789897,-0.0329022z"/>
     <polygon id="_171765552" class="fil2 str0" points="1.22189,0.739964 0.942171,1.22445 1.18425,1.22445 1.10897,1.59089 1.38869,1.10641 1.14661,1.10641 "/>
    </g>
   </g>
  </g>
  <polygon class="fil3" points="-0,0 2.33086,0 2.33086,2.33086 -0,2.33086 "/>
 </g>
</svg>
