<?xml version="1.0" encoding="UTF-8"?>
<!DOCTYPE svg PUBLIC "-//W3C//DTD SVG 1.1//EN" "http://www.w3.org/Graphics/SVG/1.1/DTD/svg11.dtd">
<!-- Creator: CorelDRAW -->
<svg xmlns="http://www.w3.org/2000/svg" xml:space="preserve" width="16px" height="16px" style="shape-rendering:geometricPrecision; text-rendering:geometricPrecision; image-rendering:optimizeQuality; fill-rule:evenodd; clip-rule:evenodd"
viewBox="0 0 2.33086 2.33086"
 xmlns:xlink="http://www.w3.org/1999/xlink">
 <defs>
  <style type="text/css">
   <![CDATA[
    .str0 {stroke:#4C4C4C;stroke-width:0.00502137}
    .fil3 {fill:none}
    .fil2 {fill:black}
    .fil0 {fill:white}
    .fil1 {fill:#7F7F7F;fill-rule:nonzero}
   ]]>
  </style>
   <clipPath id="id0">
    <path d="M-0 0l2.33086 0 0 2.33086 -2.33086 0 0 -2.33086z"/>
   </clipPath>
 </defs>
 <g id="Ebene_x0020_1">
  <metadata id="CorelCorpID_0Corel-Layer"/>
  <g>
  </g>
  <g style="clip-path:url(#id0)">
   <g>
    <g id="_327868384">
     <rect id="_325349704" class="fil0" x="0.0819585" y="0.443114" width="2.16694" height="1.44463" rx="0.178748" ry="0.178748"/>
     <path id="_325349320" class="fil1" d="M0.263387 0.393426l1.80408 0c0.0636111,0 0.121401,0.0259864 0.163264,0.0678511 0.0418646,0.0418632 0.0678511,0.0996573 0.0678511,0.163266l0 1.08177c0,0.0636082 -0.0259864,0.121401 -0.0678496,0.163264 -0.0418646,0.0418646 -0.0996559,0.0678511 -0.163266,0.0678511l-1.80408 0c-0.0636097,0 -0.121401,-0.0259864 -0.163266,-0.0678511 -0.0418632,-0.0418632 -0.0678496,-0.0996559 -0.0678496,-0.163264l0 -1.08177c0,-0.0636082 0.0259864,-0.121402 0.0678511,-0.163266 0.0418632,-0.0418646 0.099653,-0.0678511 0.163264,-0.0678511zm1.80408 0.0993755l-1.80408 0c-0.0361772,0 -0.0691021,0.0148364 -0.093002,0.0387377 -0.0239013,0.0238999 -0.0387377,0.0568277 -0.0387377,0.0930034l0 1.08177c0,0.0361757 0.0148364,0.0691021 0.0387362,0.093002 0.0239013,0.0239013 0.0568263,0.0387377 0.0930034,0.0387377l1.80408 0c0.0361772,0 0.0691021,-0.0148364 0.0930034,-0.0387377 0.0238999,-0.0238999 0.0387362,-0.0568263 0.0387362,-0.093002l0 -1.08177c0,-0.0361757 -0.0148364,-0.0691036 -0.0387377,-0.0930034 -0.0238999,-0.0239013 -0.0568248,-0.0387377 -0.093002,-0.0387377z"/>
    </g>
    <polygon class="fil2 str0" points="1.32008,0 0.553884,1.32709 1.21698,1.32709 1.01078,2.33086 1.77697,1.00377 1.11388,1.00377 "/>
   </g>
  </g>
  <polygon class="fil3" points="-0,0 2.33086,0 2.33086,2.33086 -0,2.33086 "/>
 </g>
</svg>
